<?xml version="1.0" encoding="UTF-8"?>
<svg xmlns="http://www.w3.org/2000/svg" width="216.000mm" height="127.000mm" viewBox="-708.000000 386.500000 216.000031 127.000000">
    <circle transform="matrix(1,0,0,-1,-690,391.5)" style="stroke:#000000;stroke-width:0.05mm;fill:none" r="2" cx="0" cy="0"/>
    <circle transform="matrix(1,0,0,-1,-650,391.5)" style="stroke:#000000;stroke-width:0.05mm;fill:none" r="2" cx="0" cy="0"/>
    <circle transform="matrix(1,0,0,-1,-640,391.5)" style="stroke:#000000;stroke-width:0.05mm;fill:none" r="2" cx="0" cy="0"/>
    <circle transform="matrix(1,0,0,-1,-630,391.5)" style="stroke:#000000;stroke-width:0.05mm;fill:none" r="2" cx="0" cy="0"/>
    <circle transform="matrix(1,0,0,-1,-620,391.5)" style="stroke:#000000;stroke-width:0.05mm;fill:none" r="2" cx="0" cy="0"/>
    <circle transform="matrix(1,0,0,-1,-610,391.5)" style="stroke:#000000;stroke-width:0.05mm;fill:none" r="2" cx="0" cy="0"/>
    <circle transform="matrix(1,0,0,-1,-509.999969,391.5)" style="stroke:#000000;stroke-width:0.05mm;fill:none" r="2" cx="0" cy="0"/>
    <circle transform="matrix(1,0,0,-1,-498.449982,507.149963)" style="stroke:#000000;stroke-width:0.05mm;fill:none" r="1.1" cx="0" cy="0"/>
    <circle transform="matrix(1,0,0,-1,-599.999939,507.149963)" style="stroke:#000000;stroke-width:0.05mm;fill:none" r="1.1" cx="0" cy="0"/>
    <circle transform="matrix(1,0,0,-1,-701.649963,507.150024)" style="stroke:#000000;stroke-width:0.05mm;fill:none" r="1.1" cx="0" cy="0"/>
    <circle transform="matrix(1,0,0,-1,-587.999939,392.5)" style="stroke:#000000;stroke-width:0.05mm;fill:none" r="1.1" cx="0" cy="0"/>
    <circle transform="matrix(1,0,0,-1,-498.449982,392.5)" style="stroke:#000000;stroke-width:0.05mm;fill:none" r="1.1" cx="0" cy="0"/>
    <circle transform="matrix(1,0,0,-1,-701.650024,392.5)" style="stroke:#000000;stroke-width:0.05mm;fill:none" r="1.1" cx="0" cy="0"/>
    <path transform="matrix(1,0,0,-1,-600,450)" style="stroke:#000000;stroke-width:0.05mm;fill:none" d="M-45.649971,34.349991L-61.349972,34.349991"/>
    <path transform="matrix(1,0,0,-1,-600,450)" style="stroke:#000000;stroke-width:0.05mm;fill:none" d="M-45.649971,34.349991L-45.649971,18.64999"/>
    <path transform="matrix(1,0,0,-1,-600,450)" style="stroke:#000000;stroke-width:0.05mm;fill:none" d="M-45.649971,18.64999L-61.349972,18.64999"/>
    <path transform="matrix(1,0,0,-1,-600,450)" style="stroke:#000000;stroke-width:0.05mm;fill:none" d="M-61.349972,34.349991L-61.349972,18.64999"/>
    <path transform="matrix(1,0,0,-1,-600,450)" style="stroke:#000000;stroke-width:0.05mm;fill:none" d="M-4.64997,-30.650015L-20.34997,-30.650015"/>
    <path transform="matrix(1,0,0,-1,-600,450)" style="stroke:#000000;stroke-width:0.05mm;fill:none" d="M-4.64997,-30.650015L-4.64997,-46.350014"/>
    <path transform="matrix(1,0,0,-1,-600,450)" style="stroke:#000000;stroke-width:0.05mm;fill:none" d="M-4.64997,-46.350014L-20.34997,-46.350014"/>
    <path transform="matrix(1,0,0,-1,-600,450)" style="stroke:#000000;stroke-width:0.05mm;fill:none" d="M-20.34997,-30.650015L-20.34997,-46.350014"/>
    <path transform="matrix(1,0,0,-1,-600,450)" style="stroke:#000000;stroke-width:0.05mm;fill:none" d="M90.350029,42.349991L74.650032,42.349991"/>
    <path transform="matrix(1,0,0,-1,-600,450)" style="stroke:#000000;stroke-width:0.05mm;fill:none" d="M90.350029,42.349991L90.350029,26.64999"/>
    <path transform="matrix(1,0,0,-1,-600,450)" style="stroke:#000000;stroke-width:0.05mm;fill:none" d="M90.350029,26.64999L74.650032,26.64999"/>
    <path transform="matrix(1,0,0,-1,-600,450)" style="stroke:#000000;stroke-width:0.05mm;fill:none" d="M74.650032,42.349991L74.650032,26.64999"/>
    <path transform="matrix(1,0,0,-1,-600,450)" style="stroke:#000000;stroke-width:0.05mm;fill:none" d="M91.350029,13.34999L75.650032,13.34999"/>
    <path transform="matrix(1,0,0,-1,-600,450)" style="stroke:#000000;stroke-width:0.05mm;fill:none" d="M91.350029,13.34999L91.350029,-2.35001"/>
    <path transform="matrix(1,0,0,-1,-600,450)" style="stroke:#000000;stroke-width:0.05mm;fill:none" d="M91.350029,-2.35001L75.650032,-2.35001"/>
    <path transform="matrix(1,0,0,-1,-600,450)" style="stroke:#000000;stroke-width:0.05mm;fill:none" d="M75.650032,13.34999L75.650032,-2.35001"/>
    <path transform="matrix(1,0,0,-1,-600,450)" style="stroke:#000000;stroke-width:0.05mm;fill:none" d="M-90.350029,34.349991L-90.350029,18.64999"/>
    <path transform="matrix(1,0,0,-1,-600,450)" style="stroke:#000000;stroke-width:0.05mm;fill:none" d="M-90.350029,34.349991L-74.650032,34.349991"/>
    <path transform="matrix(1,0,0,-1,-600,450)" style="stroke:#000000;stroke-width:0.05mm;fill:none" d="M-74.650032,34.349991L-74.650032,18.64999"/>
    <path transform="matrix(1,0,0,-1,-600,450)" style="stroke:#000000;stroke-width:0.05mm;fill:none" d="M-90.350029,18.64999L-74.650032,18.64999"/>
    <path transform="matrix(1,0,0,-1,-600,450)" style="stroke:#000000;stroke-width:0.05mm;fill:none" d="M45.650028,16.349991L45.650028,0.64999"/>
    <path transform="matrix(1,0,0,-1,-600,450)" style="stroke:#000000;stroke-width:0.05mm;fill:none" d="M45.650028,16.349991L61.350029,16.349991"/>
    <path transform="matrix(1,0,0,-1,-600,450)" style="stroke:#000000;stroke-width:0.05mm;fill:none" d="M61.350029,16.349991L61.350029,0.64999"/>
    <path transform="matrix(1,0,0,-1,-600,450)" style="stroke:#000000;stroke-width:0.05mm;fill:none" d="M45.650028,0.64999L61.350029,0.64999"/>
    <path transform="matrix(1,0,0,-1,-600,450)" style="stroke:#000000;stroke-width:0.05mm;fill:none" d="M45.650028,45.349991L45.650028,29.64999"/>
    <path transform="matrix(1,0,0,-1,-600,450)" style="stroke:#000000;stroke-width:0.05mm;fill:none" d="M45.650028,45.349991L61.350029,45.349991"/>
    <path transform="matrix(1,0,0,-1,-600,450)" style="stroke:#000000;stroke-width:0.05mm;fill:none" d="M61.350029,45.349991L61.350029,29.64999"/>
    <path transform="matrix(1,0,0,-1,-600,450)" style="stroke:#000000;stroke-width:0.05mm;fill:none" d="M45.650028,29.64999L61.350029,29.64999"/>
    <path transform="matrix(1,0,0,-1,-600,450)" style="stroke:#000000;stroke-width:0.05mm;fill:none" d="M32.35009,1.64999L32.35009,17.349991"/>
    <path transform="matrix(1,0,0,-1,-600,450)" style="stroke:#000000;stroke-width:0.05mm;fill:none" d="M32.35009,1.64999L16.650089,1.64999"/>
    <path transform="matrix(1,0,0,-1,-600,450)" style="stroke:#000000;stroke-width:0.05mm;fill:none" d="M16.650089,1.64999L16.650089,17.349991"/>
    <path transform="matrix(1,0,0,-1,-600,450)" style="stroke:#000000;stroke-width:0.05mm;fill:none" d="M32.35009,17.349991L16.650089,17.349991"/>
    <path transform="matrix(1,0,0,-1,-600,450)" style="stroke:#000000;stroke-width:0.05mm;fill:none" d="M32.35009,30.64999L32.35009,46.349991"/>
    <path transform="matrix(1,0,0,-1,-600,450)" style="stroke:#000000;stroke-width:0.05mm;fill:none" d="M32.35009,30.64999L16.650089,30.64999"/>
    <path transform="matrix(1,0,0,-1,-600,450)" style="stroke:#000000;stroke-width:0.05mm;fill:none" d="M16.650089,30.64999L16.650089,46.349991"/>
    <path transform="matrix(1,0,0,-1,-600,450)" style="stroke:#000000;stroke-width:0.05mm;fill:none" d="M32.35009,46.349991L16.650089,46.349991"/>
    <path transform="matrix(1,0,0,-1,-600,450)" style="stroke:#000000;stroke-width:0.05mm;fill:none" d="M5.35003,19.64999L5.35003,35.349991"/>
    <path transform="matrix(1,0,0,-1,-600,450)" style="stroke:#000000;stroke-width:0.05mm;fill:none" d="M5.35003,19.64999L-10.34997,19.64999"/>
    <path transform="matrix(1,0,0,-1,-600,450)" style="stroke:#000000;stroke-width:0.05mm;fill:none" d="M-10.34997,19.64999L-10.34997,35.349991"/>
    <path transform="matrix(1,0,0,-1,-600,450)" style="stroke:#000000;stroke-width:0.05mm;fill:none" d="M5.35003,35.349991L-10.34997,35.349991"/>
    <path transform="matrix(1,0,0,-1,-600,450)" style="stroke:#000000;stroke-width:0.05mm;fill:none" d="M5.35003,-9.35001L5.35003,6.34999"/>
    <path transform="matrix(1,0,0,-1,-600,450)" style="stroke:#000000;stroke-width:0.05mm;fill:none" d="M5.35003,-9.35001L-10.34997,-9.35001"/>
    <path transform="matrix(1,0,0,-1,-600,450)" style="stroke:#000000;stroke-width:0.05mm;fill:none" d="M-10.34997,-9.35001L-10.34997,6.34999"/>
    <path transform="matrix(1,0,0,-1,-600,450)" style="stroke:#000000;stroke-width:0.05mm;fill:none" d="M5.35003,6.34999L-10.34997,6.34999"/>
    <path transform="matrix(1,0,0,-1,-600,450)" style="stroke:#000000;stroke-width:0.05mm;fill:none" d="M-35.349972,21.349991L-35.349972,5.64999"/>
    <path transform="matrix(1,0,0,-1,-600,450)" style="stroke:#000000;stroke-width:0.05mm;fill:none" d="M-35.349972,21.349991L-19.649969,21.349991"/>
    <path transform="matrix(1,0,0,-1,-600,450)" style="stroke:#000000;stroke-width:0.05mm;fill:none" d="M-19.649969,21.349991L-19.649969,5.64999"/>
    <path transform="matrix(1,0,0,-1,-600,450)" style="stroke:#000000;stroke-width:0.05mm;fill:none" d="M-35.349972,5.64999L-19.649969,5.64999"/>
    <path transform="matrix(1,0,0,-1,-600,450)" style="stroke:#000000;stroke-width:0.05mm;fill:none" d="M-107.999969,-57.150009L-107.999969,57.14999"/>
    <path transform="matrix(1,0,0,-1,-600,450)" style="stroke:#000000;stroke-width:0.05mm;fill:none" d="M-107.999969,-57.150009C-107.999969,-60.657017,-105.156975,-63.500011,-101.649971,-63.500008"/>
    <path transform="matrix(1,0,0,-1,-600,450)" style="stroke:#000000;stroke-width:0.05mm;fill:none" d="M-101.649971,-63.500011L101.650032,-63.500011"/>
    <path transform="matrix(1,0,0,-1,-600,450)" style="stroke:#000000;stroke-width:0.05mm;fill:none" d="M101.650032,-63.500008C105.157043,-63.500008,108.000031,-60.657017,108.000031,-57.150009"/>
    <path transform="matrix(1,0,0,-1,-600,450)" style="stroke:#000000;stroke-width:0.05mm;fill:none" d="M108.000031,-57.150009L108.000031,57.14999"/>
    <path transform="matrix(1,0,0,-1,-600,450)" style="stroke:#000000;stroke-width:0.05mm;fill:none" d="M108.000031,57.14999C108.000031,60.656998,105.157043,63.499989,101.650032,63.499989"/>
    <path transform="matrix(1,0,0,-1,-600,450)" style="stroke:#000000;stroke-width:0.05mm;fill:none" d="M-101.649971,63.499989L101.650032,63.499989"/>
    <path transform="matrix(1,0,0,-1,-600,450)" style="stroke:#000000;stroke-width:0.05mm;fill:none" d="M-101.649971,63.499989C-105.156982,63.499989,-107.999969,60.656998,-107.999969,57.14999"/>
</svg>
