<?xml version="1.0" encoding="UTF-8"?>
<svg xmlns="http://www.w3.org/2000/svg" width="207.000mm" height="126.500mm" viewBox="-762.825378 446.993958 207.000000 126.500000">
    <circle transform="matrix(1,0,0,-1,-742.325378,450.993958)" style="stroke:#000000;stroke-width:0.05mm;fill:none" r="2" cx="0" cy="0"/>
    <circle transform="matrix(1,0,0,-1,-718.325378,450.993958)" style="stroke:#000000;stroke-width:0.05mm;fill:none" r="2" cx="0" cy="0"/>
    <circle transform="matrix(1,0,0,-1,-708.325378,450.993958)" style="stroke:#000000;stroke-width:0.05mm;fill:none" r="2" cx="0" cy="0"/>
    <circle transform="matrix(1,0,0,-1,-626.325378,450.993958)" style="stroke:#000000;stroke-width:0.05mm;fill:none" r="2" cx="0" cy="0"/>
    <circle transform="matrix(1,0,0,-1,-616.325378,450.993958)" style="stroke:#000000;stroke-width:0.05mm;fill:none" r="2" cx="0" cy="0"/>
    <circle transform="matrix(1,0,0,-1,-606.325378,450.993958)" style="stroke:#000000;stroke-width:0.05mm;fill:none" r="2" cx="0" cy="0"/>
    <circle transform="matrix(1,0,0,-1,-577.325378,450.993958)" style="stroke:#000000;stroke-width:0.05mm;fill:none" r="2" cx="0" cy="0"/>
    <circle transform="matrix(1,0,0,-1,-758.825378,569.493958)" style="stroke:#000000;stroke-width:0.05mm;fill:none" r="1.15" cx="0" cy="0"/>
    <circle transform="matrix(1,0,0,-1,-659.3255,569.494019)" style="stroke:#000000;stroke-width:0.05mm;fill:none" r="1.15" cx="0" cy="0"/>
    <circle transform="matrix(1,0,0,-1,-559.825378,569.493958)" style="stroke:#000000;stroke-width:0.05mm;fill:none" r="1.15" cx="0" cy="0"/>
    <circle transform="matrix(1,0,0,-1,-559.825378,450.993958)" style="stroke:#000000;stroke-width:0.05mm;fill:none" r="1.15" cx="0" cy="0"/>
    <circle transform="matrix(1,0,0,-1,-676.325317,450.994049)" style="stroke:#000000;stroke-width:0.05mm;fill:none" r="1.15" cx="0" cy="0"/>
    <circle transform="matrix(1,0,0,-1,-698.325439,450.994049)" style="stroke:#000000;stroke-width:0.05mm;fill:none" r="1.15" cx="0" cy="0"/>
    <circle transform="matrix(1,0,0,-1,-642.725281,450.993896)" style="stroke:#000000;stroke-width:0.05mm;fill:none" r="1.15" cx="0" cy="0"/>
    <circle transform="matrix(1,0,0,-1,-758.825378,450.993958)" style="stroke:#000000;stroke-width:0.05mm;fill:none" r="1.15" cx="0" cy="0"/>
    <path transform="matrix(1,0,0,-1,-659.325378,510.243958)" style="stroke:#000000;stroke-width:0.05mm;fill:none" d="M60.900002,1.35L60.900002,17.15"/>
    <path transform="matrix(1,0,0,-1,-659.325378,510.243958)" style="stroke:#000000;stroke-width:0.05mm;fill:none" d="M60.900002,1.35L45.099998,1.35"/>
    <path transform="matrix(1,0,0,-1,-659.325378,510.243958)" style="stroke:#000000;stroke-width:0.05mm;fill:none" d="M45.099998,1.35L45.099998,17.15"/>
    <path transform="matrix(1,0,0,-1,-659.325378,510.243958)" style="stroke:#000000;stroke-width:0.05mm;fill:none" d="M60.900002,17.15L45.099998,17.15"/>
    <path transform="matrix(1,0,0,-1,-659.325378,510.243958)" style="stroke:#000000;stroke-width:0.05mm;fill:none" d="M89.900002,27.35L89.900002,43.150002"/>
    <path transform="matrix(1,0,0,-1,-659.325378,510.243958)" style="stroke:#000000;stroke-width:0.05mm;fill:none" d="M89.900002,27.35L74.099998,27.35"/>
    <path transform="matrix(1,0,0,-1,-659.325378,510.243958)" style="stroke:#000000;stroke-width:0.05mm;fill:none" d="M74.099998,27.35L74.099998,43.150002"/>
    <path transform="matrix(1,0,0,-1,-659.325378,510.243958)" style="stroke:#000000;stroke-width:0.05mm;fill:none" d="M89.900002,43.150002L74.099998,43.150002"/>
    <path transform="matrix(1,0,0,-1,-659.325378,510.243958)" style="stroke:#000000;stroke-width:0.05mm;fill:none" d="M90.900002,-1.65L90.900002,14.15"/>
    <path transform="matrix(1,0,0,-1,-659.325378,510.243958)" style="stroke:#000000;stroke-width:0.05mm;fill:none" d="M90.900002,-1.65L75.099998,-1.65"/>
    <path transform="matrix(1,0,0,-1,-659.325378,510.243958)" style="stroke:#000000;stroke-width:0.05mm;fill:none" d="M75.099998,-1.65L75.099998,14.15"/>
    <path transform="matrix(1,0,0,-1,-659.325378,510.243958)" style="stroke:#000000;stroke-width:0.05mm;fill:none" d="M90.900002,14.15L75.099998,14.15"/>
    <path transform="matrix(1,0,0,-1,-659.325378,510.243958)" style="stroke:#000000;stroke-width:0.05mm;fill:none" d="M60.900002,30.35L60.900002,46.150002"/>
    <path transform="matrix(1,0,0,-1,-659.325378,510.243958)" style="stroke:#000000;stroke-width:0.05mm;fill:none" d="M60.900002,30.35L45.099998,30.35"/>
    <path transform="matrix(1,0,0,-1,-659.325378,510.243958)" style="stroke:#000000;stroke-width:0.05mm;fill:none" d="M45.099998,30.35L45.099998,46.150002"/>
    <path transform="matrix(1,0,0,-1,-659.325378,510.243958)" style="stroke:#000000;stroke-width:0.05mm;fill:none" d="M60.900002,46.150002L45.099998,46.150002"/>
    <path transform="matrix(1,0,0,-1,-659.325378,510.243958)" style="stroke:#000000;stroke-width:0.05mm;fill:none" d="M31.9,2.35L31.9,18.15"/>
    <path transform="matrix(1,0,0,-1,-659.325378,510.243958)" style="stroke:#000000;stroke-width:0.05mm;fill:none" d="M31.9,2.35L16.1,2.35"/>
    <path transform="matrix(1,0,0,-1,-659.325378,510.243958)" style="stroke:#000000;stroke-width:0.05mm;fill:none" d="M16.1,2.35L16.1,18.15"/>
    <path transform="matrix(1,0,0,-1,-659.325378,510.243958)" style="stroke:#000000;stroke-width:0.05mm;fill:none" d="M31.9,18.15L16.1,18.15"/>
    <path transform="matrix(1,0,0,-1,-659.325378,510.243958)" style="stroke:#000000;stroke-width:0.05mm;fill:none" d="M31.9,31.35L31.9,47.150002"/>
    <path transform="matrix(1,0,0,-1,-659.325378,510.243958)" style="stroke:#000000;stroke-width:0.05mm;fill:none" d="M31.9,31.35L16.1,31.35"/>
    <path transform="matrix(1,0,0,-1,-659.325378,510.243958)" style="stroke:#000000;stroke-width:0.05mm;fill:none" d="M16.1,31.35L16.1,47.150002"/>
    <path transform="matrix(1,0,0,-1,-659.325378,510.243958)" style="stroke:#000000;stroke-width:0.05mm;fill:none" d="M31.9,47.150002L16.1,47.150002"/>
    <path transform="matrix(1,0,0,-1,-659.325378,510.243958)" style="stroke:#000000;stroke-width:0.05mm;fill:none" d="M4.9,20.35L4.9,36.150002"/>
    <path transform="matrix(1,0,0,-1,-659.325378,510.243958)" style="stroke:#000000;stroke-width:0.05mm;fill:none" d="M4.9,20.35L-10.9,20.35"/>
    <path transform="matrix(1,0,0,-1,-659.325378,510.243958)" style="stroke:#000000;stroke-width:0.05mm;fill:none" d="M-10.9,20.35L-10.9,36.150002"/>
    <path transform="matrix(1,0,0,-1,-659.325378,510.243958)" style="stroke:#000000;stroke-width:0.05mm;fill:none" d="M4.9,36.150002L-10.9,36.150002"/>
    <path transform="matrix(1,0,0,-1,-659.325378,510.243958)" style="stroke:#000000;stroke-width:0.05mm;fill:none" d="M4.9,-8.65L4.9,7.15"/>
    <path transform="matrix(1,0,0,-1,-659.325378,510.243958)" style="stroke:#000000;stroke-width:0.05mm;fill:none" d="M4.9,-8.65L-10.9,-8.65"/>
    <path transform="matrix(1,0,0,-1,-659.325378,510.243958)" style="stroke:#000000;stroke-width:0.05mm;fill:none" d="M-10.9,-8.65L-10.9,7.15"/>
    <path transform="matrix(1,0,0,-1,-659.325378,510.243958)" style="stroke:#000000;stroke-width:0.05mm;fill:none" d="M4.9,7.15L-10.9,7.15"/>
    <path transform="matrix(1,0,0,-1,-659.325378,510.243958)" style="stroke:#000000;stroke-width:0.05mm;fill:none" d="M-5.1,-45.650002L-5.1,-29.85"/>
    <path transform="matrix(1,0,0,-1,-659.325378,510.243958)" style="stroke:#000000;stroke-width:0.05mm;fill:none" d="M-5.1,-45.650002L-20.9,-45.650002"/>
    <path transform="matrix(1,0,0,-1,-659.325378,510.243958)" style="stroke:#000000;stroke-width:0.05mm;fill:none" d="M-20.9,-45.650002L-20.9,-29.85"/>
    <path transform="matrix(1,0,0,-1,-659.325378,510.243958)" style="stroke:#000000;stroke-width:0.05mm;fill:none" d="M-5.1,-29.85L-20.9,-29.85"/>
    <path transform="matrix(1,0,0,-1,-659.325378,510.243958)" style="stroke:#000000;stroke-width:0.05mm;fill:none" d="M-20.1,6.35L-20.1,22.15"/>
    <path transform="matrix(1,0,0,-1,-659.325378,510.243958)" style="stroke:#000000;stroke-width:0.05mm;fill:none" d="M-20.1,6.35L-35.900002,6.35"/>
    <path transform="matrix(1,0,0,-1,-659.325378,510.243958)" style="stroke:#000000;stroke-width:0.05mm;fill:none" d="M-35.900002,6.35L-35.900002,22.15"/>
    <path transform="matrix(1,0,0,-1,-659.325378,510.243958)" style="stroke:#000000;stroke-width:0.05mm;fill:none" d="M-20.1,22.15L-35.900002,22.15"/>
    <path transform="matrix(1,0,0,-1,-659.325378,510.243958)" style="stroke:#000000;stroke-width:0.05mm;fill:none" d="M-46.099998,19.35L-46.099998,35.150002"/>
    <path transform="matrix(1,0,0,-1,-659.325378,510.243958)" style="stroke:#000000;stroke-width:0.05mm;fill:none" d="M-46.099998,19.35L-61.900002,19.35"/>
    <path transform="matrix(1,0,0,-1,-659.325378,510.243958)" style="stroke:#000000;stroke-width:0.05mm;fill:none" d="M-61.900002,19.35L-61.900002,35.150002"/>
    <path transform="matrix(1,0,0,-1,-659.325378,510.243958)" style="stroke:#000000;stroke-width:0.05mm;fill:none" d="M-46.099998,35.150002L-61.900002,35.150002"/>
    <path transform="matrix(1,0,0,-1,-659.325378,510.243958)" style="stroke:#000000;stroke-width:0.05mm;fill:none" d="M-75.099998,19.35L-75.099998,35.150002"/>
    <path transform="matrix(1,0,0,-1,-659.325378,510.243958)" style="stroke:#000000;stroke-width:0.05mm;fill:none" d="M-75.099998,19.35L-90.900002,19.35"/>
    <path transform="matrix(1,0,0,-1,-659.325378,510.243958)" style="stroke:#000000;stroke-width:0.05mm;fill:none" d="M-90.900002,19.35L-90.900002,35.150002"/>
    <path transform="matrix(1,0,0,-1,-659.325378,510.243958)" style="stroke:#000000;stroke-width:0.05mm;fill:none" d="M-75.099998,35.150002L-90.900002,35.150002"/>
    <path transform="matrix(1,0,0,-1,-659.325378,510.243958)" style="stroke:#000000;stroke-width:0.05mm;fill:none" d="M103.5,59.25L103.5,-59.25"/>
    <path transform="matrix(1,0,0,-1,-659.325378,510.243958)" style="stroke:#000000;stroke-width:0.05mm;fill:none" d="M103.5,59.25C103.5,61.459141,101.709137,63.25,99.5,63.25"/>
    <path transform="matrix(1,0,0,-1,-659.325378,510.243958)" style="stroke:#000000;stroke-width:0.05mm;fill:none" d="M-99.5,63.25L99.5,63.25"/>
    <path transform="matrix(1,0,0,-1,-659.325378,510.243958)" style="stroke:#000000;stroke-width:0.05mm;fill:none" d="M-99.5,63.25C-101.709137,63.25,-103.5,61.459141,-103.5,59.25"/>
    <path transform="matrix(1,0,0,-1,-659.325378,510.243958)" style="stroke:#000000;stroke-width:0.05mm;fill:none" d="M-103.5,-59.25L-103.5,59.25"/>
    <path transform="matrix(1,0,0,-1,-659.325378,510.243958)" style="stroke:#000000;stroke-width:0.05mm;fill:none" d="M-103.5,-59.25C-103.5,-61.459141,-101.709137,-63.25,-99.5,-63.25"/>
    <path transform="matrix(1,0,0,-1,-659.325378,510.243958)" style="stroke:#000000;stroke-width:0.05mm;fill:none" d="M-99.5,-63.25L99.5,-63.25"/>
    <path transform="matrix(1,0,0,-1,-659.325378,510.243958)" style="stroke:#000000;stroke-width:0.05mm;fill:none" d="M99.5,-63.25C101.709137,-63.25,103.5,-61.459137,103.5,-59.25"/>
</svg>
